<?xml version="1.0" encoding="UTF-8"?>
<svg version="1.1" xmlns="http://www.w3.org/2000/svg" width="32" height="32">
<path d="M0 0 C10.56 0 21.12 0 32 0 C32 10.56 32 21.12 32 32 C21.44 32 10.88 32 0 32 C0 21.44 0 10.88 0 0 Z " fill="#FBFDFE" transform="translate(0,0)"/>
<path d="M0 0 C2.6875 -0.3125 2.6875 -0.3125 6 0 C8.6875 2.4375 8.6875 2.4375 11 5 C11.99 5.33 12.98 5.66 14 6 C14.433125 5.071875 14.433125 5.071875 14.875 4.125 C16 2 16 2 18 0 C21.125 -0.125 21.125 -0.125 24 0 C23.57847656 0.53109375 23.15695313 1.0621875 22.72265625 1.609375 C22.17480469 2.31578125 21.62695312 3.0221875 21.0625 3.75 C20.24458984 4.79414063 20.24458984 4.79414063 19.41015625 5.859375 C17.95316137 8.0711013 17.12245446 9.35192221 17 12 C18.41035202 14.41661521 18.41035202 14.41661521 20.4375 16.6875 C24 20.94716243 24 20.94716243 24 22 C21.3125 22.3125 21.3125 22.3125 18 22 C15.125 19.5 15.125 19.5 13 17 C10.77064705 17.99936512 9.21854466 18.74171995 7.625 20.625 C5.19604762 22.6802674 3.06626911 22.20441794 0 22 C0.40992188 21.46890625 0.81984375 20.9378125 1.2421875 20.390625 C1.78101563 19.68421875 2.31984375 18.9778125 2.875 18.25 C3.40867187 17.55390625 3.94234375 16.8578125 4.4921875 16.140625 C5.89238914 14.15277397 6.97855265 12.20156614 8 10 C7.13375 9.04287109 7.13375 9.04287109 6.25 8.06640625 C5.5075 7.24011719 4.765 6.41382813 4 5.5625 C3.2575 4.73878906 2.515 3.91507813 1.75 3.06640625 C0 1 0 1 0 0 Z " fill="#15B4EA" transform="translate(4,5)"/>
<path d="M0 0 C-1.35902329 5.13408798 -4.56967183 8.27576094 -9 11 C-12.4375 11.375 -12.4375 11.375 -15 11 C-14.06558465 9.72689688 -13.12732889 8.456612 -12.1875 7.1875 C-11.66542969 6.47980469 -11.14335937 5.77210937 -10.60546875 5.04296875 C-7.13674533 0.62899711 -5.81381034 -0.38758736 0 0 Z " fill="#0FB4EA" transform="translate(19,16)"/>
<path d="M0 0 C2.6953125 -0.30859375 2.6953125 -0.30859375 6 0 C8.5546875 2.15234375 8.5546875 2.15234375 10.875 4.9375 C11.65617188 5.85402344 12.43734375 6.77054688 13.2421875 7.71484375 C15 10 15 10 15 11 C12.3046875 11.30859375 12.3046875 11.30859375 9 11 C6.4453125 8.84765625 6.4453125 8.84765625 4.125 6.0625 C3.34382812 5.14597656 2.56265625 4.22945312 1.7578125 3.28515625 C0 1 0 1 0 0 Z " fill="#1E4289" transform="translate(4,5)"/>
<path d="M0 0 C3.63559661 3.43361902 6.36113346 6.7973607 9 11 C6.375 11.4375 6.375 11.4375 3 11 C0.66877878 8.9050512 -1.17328621 6.53926173 -3 4 C-2.01 2.68 -1.02 1.36 0 0 Z " fill="#22478C" transform="translate(19,16)"/>
</svg>
